<svg width="16" height="16" viewBox="0 0 16 16" fill="none" xmlns="http://www.w3.org/2000/svg">
<path d="M5 1.33398C5.18409 1.33398 5.33333 1.48322 5.33333 1.66732V2.66732H10.6667V1.66732C10.6667 1.48322 10.8159 1.33398 11 1.33398C11.1841 1.33398 11.3333 1.48322 11.3333 1.66732V2.66732H12.3333C13.2538 2.66732 14 3.41351 14 4.33398V6.00065H2V4.33398C2 3.41351 2.74619 2.66732 3.66667 2.66732H4.66667V1.66732C4.66667 1.48322 4.81591 1.33398 5 1.33398Z" fill="#EDF2FF"/>
<path d="M2 12.3327V6.66602H14V12.3327C14 13.2531 13.2538 13.9993 12.3333 13.9993H3.66667C2.74619 13.9993 2 13.2531 2 12.3327Z" fill="#EDF2FF"/>
</svg>
