<svg width="16" height="16" viewBox="0 0 16 16" fill="none" xmlns="http://www.w3.org/2000/svg">
<path d="M6.00033 1.33301C5.26395 1.33301 4.66699 1.92996 4.66699 2.66634V8.27714C3.4901 8.79134 2.66699 9.96567 2.66699 11.333C2.66699 13.1739 4.15938 14.6663 6.00033 14.6663C7.84126 14.6663 9.33366 13.1739 9.33366 11.333C9.33366 9.96567 8.51053 8.79134 7.33366 8.27714V2.66634C7.33366 1.92996 6.73673 1.33301 6.00033 1.33301Z" fill="#EDF2FF"/>
<path d="M10.3333 2C10.1493 2 10 2.14924 10 2.33333C10 2.51743 10.1493 2.66667 10.3333 2.66667H13C13.1841 2.66667 13.3333 2.51743 13.3333 2.33333C13.3333 2.14924 13.1841 2 13 2H10.3333Z" fill="#EDF2FF"/>
<path d="M10.3333 4.66699C10.1493 4.66699 10 4.81623 10 5.00033C10 5.18442 10.1493 5.33366 10.3333 5.33366H13C13.1841 5.33366 13.3333 5.18442 13.3333 5.00033C13.3333 4.81623 13.1841 4.66699 13 4.66699H10.3333Z" fill="#EDF2FF"/>
<path d="M10.3333 7.33301C10.1493 7.33301 10 7.48227 10 7.66634C10 7.85041 10.1493 7.99967 10.3333 7.99967H13C13.1841 7.99967 13.3333 7.85041 13.3333 7.66634C13.3333 7.48227 13.1841 7.33301 13 7.33301H10.3333Z" fill="#EDF2FF"/>
</svg>
