<svg width="16" height="16" viewBox="0 0 16 16" fill="none" xmlns="http://www.w3.org/2000/svg">
<path fill-rule="evenodd" clip-rule="evenodd" d="M7.66634 2.66667C7.32661 2.66667 7.02634 2.83575 6.84514 3.09585C6.73987 3.2469 6.5321 3.28402 6.38106 3.17877C6.23002 3.07353 6.19289 2.86576 6.29814 2.71472C6.5987 2.28338 7.09941 2 7.66634 2C8.58681 2 9.33301 2.74619 9.33301 3.66667C9.33301 4.58714 8.58681 5.33333 7.66634 5.33333H1.66634C1.48225 5.33333 1.33301 5.18409 1.33301 5C1.33301 4.81591 1.48225 4.66667 1.66634 4.66667H7.66634C8.21861 4.66667 8.66634 4.21895 8.66634 3.66667C8.66634 3.11438 8.21861 2.66667 7.66634 2.66667ZM12.9997 5.66667C12.6599 5.66667 12.3597 5.83575 12.1785 6.09585C12.0732 6.2469 11.8654 6.28402 11.7144 6.17877C11.5633 6.07353 11.5262 5.86576 11.6315 5.71472C11.932 5.28338 12.4327 5 12.9997 5C13.9201 5 14.6663 5.74619 14.6663 6.66667C14.6663 7.58713 13.9201 8.33333 12.9997 8.33333H1.66634C1.48225 8.33333 1.33301 8.18407 1.33301 8C1.33301 7.81593 1.48225 7.66667 1.66634 7.66667H12.9997C13.5519 7.66667 13.9997 7.21893 13.9997 6.66667C13.9997 6.11438 13.5519 5.66667 12.9997 5.66667ZM1.33301 11C1.33301 10.8159 1.48225 10.6667 1.66634 10.6667H10.333C11.2535 10.6667 11.9997 11.4129 11.9997 12.3333C11.9997 13.2538 11.2535 14 10.333 14C9.76607 14 9.26534 13.7166 8.96481 13.2853C8.85954 13.1343 8.89667 12.9265 9.04774 12.8212C9.19874 12.716 9.40654 12.7531 9.51181 12.9041C9.69301 13.1643 9.99327 13.3333 10.333 13.3333C10.8853 13.3333 11.333 12.8856 11.333 12.3333C11.333 11.7811 10.8853 11.3333 10.333 11.3333H1.66634C1.48225 11.3333 1.33301 11.1841 1.33301 11Z" fill="#EDF2FF"/>
</svg>
